# xmcd
#
# Track frame offsets:
#	150
#	8907
#	41050
#	60362
#	76984
#	101227
#	121203
#	134523
#	150714
#	176927
#	198131
#
# Disc length: 3624 seconds
#
# Revision: 1
# Processed by: cddbd v1.5.2PL0 Copyright (c) Steve Scherf et al.
# Submitted via: audiograbber 1.83.01
#
DISCID=8f0e260b
DTITLE=Mike Lander and Meridith Moore - The Soulo Sessions
DYEAR=2008
DGENRE=Blues
TTITLE0=Ramblin' man
TTITLE1=Pushin up daises
TTITLE2=Glory glory (For Grandma Boots)
TTITLE3=Soulo
TTITLE4=Don't cry
TTITLE5=Wade in the water
TTITLE6=Heaven
TTITLE7=Aint you proud
TTITLE8=Gypsy Red
TTITLE9=Worried baby blues
TTITLE10=My guitar and my pen
EXTD=
EXTT0=
EXTT1=
EXTT2=
EXTT3=
EXTT4=
EXTT5=
EXTT6=
EXTT7=
EXTT8=
EXTT9=
EXTT10=
PLAYORDER=
